<?xml version="1.0" encoding="UTF-8" standalone="no"?>
<!-- Created with Inkscape (http://www.inkscape.org/) -->

<svg
   xmlns:dc="http://purl.org/dc/elements/1.1/"
   xmlns:cc="http://creativecommons.org/ns#"
   xmlns:rdf="http://www.w3.org/1999/02/22-rdf-syntax-ns#"
   xmlns:svg="http://www.w3.org/2000/svg"
   xmlns="http://www.w3.org/2000/svg"
   xmlns:xlink="http://www.w3.org/1999/xlink"
   xmlns:sodipodi="http://sodipodi.sourceforge.net/DTD/sodipodi-0.dtd"
   xmlns:inkscape="http://www.inkscape.org/namespaces/inkscape"
   width="64px"
   height="64px"
   id="svg3285"
   version="1.1"
   inkscape:version="0.48.0 r9654"
   sodipodi:docname="Новый документ 4">
  <defs
     id="defs3287">
    <filter
       inkscape:collect="always"
       id="filter3793"
       color-interpolation-filters="sRGB">
      <feGaussianBlur
         inkscape:collect="always"
         stdDeviation="1.641498"
         id="feGaussianBlur3795" />
    </filter>
    <filter
       inkscape:collect="always"
       id="filter3929"
       color-interpolation-filters="sRGB">
      <feGaussianBlur
         inkscape:collect="always"
         stdDeviation="0.92428955"
         id="feGaussianBlur3931" />
    </filter>
    <radialGradient
       inkscape:collect="always"
       xlink:href="#linearGradient3975"
       id="radialGradient4084"
       gradientUnits="userSpaceOnUse"
       cx="204.28572"
       cy="252.36218"
       fx="204.28572"
       fy="252.36218"
       r="132.62057" />
    <linearGradient
       id="linearGradient3975">
      <stop
         style="stop-color:#000011;stop-opacity:1;"
         offset="0"
         id="stop3977" />
      <stop
         id="stop3989"
         offset="0.59991527"
         style="stop-color:#00003c;stop-opacity:0.87450981;" />
      <stop
         style="stop-color:#000047;stop-opacity:0.81176466;"
         offset="0.71749866"
         id="stop3993" />
      <stop
         id="stop3985"
         offset="0.83508205"
         style="stop-color:#000058;stop-opacity:0.74901961;" />
      <stop
         id="stop3983"
         offset="0.94123614"
         style="stop-color:#000050;stop-opacity:0.49803922;" />
      <stop
         style="stop-color:#000048;stop-opacity:0;"
         offset="1"
         id="stop3979" />
    </linearGradient>
  </defs>
  <sodipodi:namedview
     id="base"
     pagecolor="#ffffff"
     bordercolor="#666666"
     borderopacity="1.0"
     inkscape:pageopacity="0.0"
     inkscape:pageshadow="2"
     inkscape:zoom="1.9445436"
     inkscape:cx="47.867743"
     inkscape:cy="34.448669"
     inkscape:current-layer="layer1"
     showgrid="true"
     inkscape:document-units="px"
     inkscape:grid-bbox="true"
     inkscape:window-width="1366"
     inkscape:window-height="715"
     inkscape:window-x="0"
     inkscape:window-y="24"
     inkscape:window-maximized="1" />
  <metadata
     id="metadata3290">
    <rdf:RDF>
      <cc:Work
         rdf:about="">
        <dc:format>image/svg+xml</dc:format>
        <dc:type
           rdf:resource="http://purl.org/dc/dcmitype/StillImage" />
        <dc:title></dc:title>
      </cc:Work>
    </rdf:RDF>
  </metadata>
  <g
     id="layer1"
     inkscape:label="Layer 1"
     inkscape:groupmode="layer">
    <g
       id="g4074"
       transform="matrix(0.13893807,0,0,0.13893807,-2.3115535,-42.688185)"
       style="stroke-width:5.92457914;stroke-miterlimit:4;stroke-dasharray:none">
      <path
         transform="translate(-231.85658,38.765992)"
         d="m 707.1068,498.79858 c 0,126.08356 -102.21092,228.29448 -228.29448,228.29448 -126.08356,0 -228.29448,-102.21092 -228.29448,-228.29448 0,-126.08356 102.21092,-228.29448 228.29448,-228.29448 126.08356,0 228.29448,102.21092 228.29448,228.29448 z"
         sodipodi:ry="228.29448"
         sodipodi:rx="228.29448"
         sodipodi:cy="498.79858"
         sodipodi:cx="478.81232"
         id="path2985"
         style="fill:#000038;fill-opacity:0.90036896;fill-rule:nonzero;stroke-width:5.92457914;stroke-miterlimit:4;stroke-dasharray:none"
         sodipodi:type="arc" />
      <path
         transform="matrix(1.24,0,0,1.24,2.0745598,21.140332)"
         d="m 361.63461,416.47116 c 0,90.65743 -73.49236,164.1498 -164.14979,164.1498 -90.65743,0 -164.149798,-73.49237 -164.149798,-164.1498 0,-90.65743 73.492368,-164.14979 164.149798,-164.14979 90.65743,0 164.14979,73.49236 164.14979,164.14979 z"
         sodipodi:ry="164.1498"
         sodipodi:rx="164.1498"
         sodipodi:cy="416.47116"
         sodipodi:cx="197.48482"
         id="path2987"
         style="fill:#ecf8fc;fill-opacity:1;fill-rule:nonzero;stroke:#000057;stroke-width:4.77788639;stroke-miterlimit:4;stroke-opacity:1;stroke-dasharray:none;filter:url(#filter3793)"
         sodipodi:type="arc" />
      <path
         transform="matrix(0.99076683,0,0,0.99076683,-28.271327,165.47222)"
         d="m 462.64987,375.55997 c 0,102.0942 -82.7637,184.85791 -184.85791,184.85791 -102.0942,0 -184.857908,-82.76371 -184.857908,-184.85791 0,-102.09421 82.763708,-184.85791 184.857908,-184.85791 102.09421,0 184.85791,82.7637 184.85791,184.85791 z"
         sodipodi:ry="184.85791"
         sodipodi:rx="184.85791"
         sodipodi:cy="375.55997"
         sodipodi:cx="277.79196"
         id="path3827"
         style="fill:#ecf8fc;fill-opacity:1;fill-rule:nonzero;stroke:#000057;stroke-width:5.97979164;stroke-linecap:round;stroke-linejoin:round;stroke-miterlimit:4;stroke-opacity:1;stroke-dasharray:none;filter:url(#filter3929)"
         sodipodi:type="arc" />
      <path
         transform="matrix(1.1077187,0,0,1.1077187,20.664621,258.01827)"
         d="m 335.71429,252.36218 c 0,72.586 -58.84257,131.42858 -131.42857,131.42858 -72.586,0 -131.428573,-58.84258 -131.428573,-131.42858 0,-72.58599 58.842573,-131.42857 131.428573,-131.42857 72.586,0 131.42857,58.84258 131.42857,131.42857 z"
         sodipodi:ry="131.42857"
         sodipodi:rx="131.42857"
         sodipodi:cy="252.36218"
         sodipodi:cx="204.28572"
         id="path3933"
         style="fill:url(#radialGradient4084);fill-opacity:1;fill-rule:nonzero;stroke:#000057;stroke-width:5.34845114;stroke-linecap:round;stroke-linejoin:round;stroke-miterlimit:4;stroke-opacity:1;stroke-dasharray:none"
         sodipodi:type="arc" />
      <path
         transform="matrix(1.7641581,0,0,1.7641581,-135.40111,53.908772)"
         d="m 124.24876,173.0244 c 0,4.74208 -3.84421,8.5863 -8.58629,8.5863 -4.74208,0 -8.5863,-3.84422 -8.5863,-8.5863 0,-4.74208 3.84422,-8.5863 8.5863,-8.5863 4.74208,0 8.58629,3.84422 8.58629,8.5863 z"
         sodipodi:ry="8.586297"
         sodipodi:rx="8.586297"
         sodipodi:cy="173.0244"
         sodipodi:cx="115.66247"
         id="path3997"
         style="fill:#b4ecfc;fill-opacity:1;fill-rule:nonzero;stroke:#000057;stroke-width:3.35830402;stroke-linecap:round;stroke-linejoin:round;stroke-miterlimit:4;stroke-opacity:1;stroke-dasharray:none"
         sodipodi:type="arc" />
      <path
         transform="matrix(1.7641581,0,0,1.7641581,223.93643,55.764502)"
         d="m 124.24876,173.0244 c 0,4.74208 -3.84421,8.5863 -8.58629,8.5863 -4.74208,0 -8.5863,-3.84422 -8.5863,-8.5863 0,-4.74208 3.84422,-8.5863 8.5863,-8.5863 4.74208,0 8.58629,3.84422 8.58629,8.5863 z"
         sodipodi:ry="8.586297"
         sodipodi:rx="8.586297"
         sodipodi:cy="173.0244"
         sodipodi:cx="115.66247"
         id="path3997-42"
         style="fill:#b4ecfc;fill-opacity:1;fill-rule:nonzero;stroke:#000057;stroke-width:3.35830402;stroke-linecap:round;stroke-linejoin:round;stroke-miterlimit:4;stroke-opacity:1;stroke-dasharray:none"
         sodipodi:type="arc" />
      <path
         transform="matrix(1.7641581,0,0,1.7641581,-135.16091,414.55092)"
         d="m 124.24876,173.0244 c 0,4.74208 -3.84421,8.5863 -8.58629,8.5863 -4.74208,0 -8.5863,-3.84422 -8.5863,-8.5863 0,-4.74208 3.84422,-8.5863 8.5863,-8.5863 4.74208,0 8.58629,3.84422 8.58629,8.5863 z"
         sodipodi:ry="8.586297"
         sodipodi:rx="8.586297"
         sodipodi:cy="173.0244"
         sodipodi:cx="115.66247"
         id="path3997-9"
         style="fill:#b4ecfc;fill-opacity:1;fill-rule:nonzero;stroke:#000057;stroke-width:3.35830402;stroke-linecap:round;stroke-linejoin:round;stroke-miterlimit:4;stroke-opacity:1;stroke-dasharray:none"
         sodipodi:type="arc" />
      <path
         transform="matrix(1.7641581,0,0,1.7641581,224.17662,416.40665)"
         d="m 124.24876,173.0244 c 0,4.74208 -3.84421,8.5863 -8.58629,8.5863 -4.74208,0 -8.5863,-3.84422 -8.5863,-8.5863 0,-4.74208 3.84422,-8.5863 8.5863,-8.5863 4.74208,0 8.58629,3.84422 8.58629,8.5863 z"
         sodipodi:ry="8.586297"
         sodipodi:rx="8.586297"
         sodipodi:cy="173.0244"
         sodipodi:cx="115.66247"
         id="path3997-42-8"
         style="fill:#b4ecfc;fill-opacity:1;fill-rule:nonzero;stroke:#000057;stroke-width:3.35830402;stroke-linecap:round;stroke-linejoin:round;stroke-miterlimit:4;stroke-opacity:1;stroke-dasharray:none"
         sodipodi:type="arc" />
    </g>
  </g>
</svg>
